<svg width="20" height="19" viewBox="0 0 20 19" fill="none" xmlns="http://www.w3.org/2000/svg">
<path d="M6.23759 11.7701C7.96 11.7701 9.35629 10.1749 9.35629 8.20711C9.35629 6.23933 7.96 4.64413 6.23759 4.64413C4.51519 4.64413 3.1189 6.23933 3.1189 8.20711C3.1189 10.1749 4.51519 11.7701 6.23759 11.7701Z" fill="#FB7E15"/>
<path d="M12.4748 17.0396C12.4748 19.2042 9.29947 18.4648 6.2374 18.4648C3.17533 18.4648 0 19.2042 0 17.0396C0 14.875 3.17533 13.1203 6.2374 13.1203C9.29947 13.1203 12.4748 14.875 12.4748 17.0396Z" fill="#FB7E15"/>
<path d="M19.9651 4.62078C19.9417 4.58213 19.9078 4.54998 19.8668 4.52761C19.8258 4.50524 19.7792 4.49345 19.7318 4.49345H16.2181L16.8072 0.278955C16.8135 0.222551 16.7993 0.165796 16.767 0.117828C16.7347 0.0698602 16.6861 0.0334712 16.629 0.0145198C16.5719 -0.0044316 16.5097 -0.00484259 16.4523 0.013353C16.395 0.0315486 16.3458 0.0672919 16.3128 0.114828L12.0397 7.12457C12.0147 7.16262 12.001 7.20623 12.0001 7.25089C11.9991 7.29555 12.0108 7.33966 12.0341 7.37865C12.0574 7.41764 12.0913 7.45012 12.1325 7.47272C12.1736 7.49533 12.2205 7.50725 12.2682 7.50726H15.7294L15.2625 11.7281C15.258 11.7843 15.2736 11.8403 15.3069 11.8873C15.3403 11.9342 15.3894 11.9694 15.4465 11.9871C15.5037 12.0049 15.5655 12.0043 15.6222 11.9853C15.6789 11.9664 15.7273 11.9302 15.7595 11.8826L19.9619 4.87363C19.9863 4.83552 19.9994 4.79203 20 4.74761C20.0005 4.70319 19.9885 4.65943 19.9651 4.62078Z" fill="#FB7E15"/>
</svg>
