<svg width="12" height="13" viewBox="0 0 12 13" fill="none" xmlns="http://www.w3.org/2000/svg">
<path d="M6.3509 12.3793C4.6112 12.3793 3.16879 11.8068 2.02367 10.6617C0.889564 9.50554 0.32251 8.06864 0.32251 6.35096C0.32251 4.63328 0.889564 3.20188 2.02367 2.05676C3.16879 0.900635 4.6112 0.322571 6.3509 0.322571C7.39692 0.322571 8.36586 0.570313 9.25774 1.0658C10.1496 1.56128 10.8488 2.22743 11.3553 3.06425L8.79528 4.53418C8.57507 4.12679 8.24475 3.80747 7.80432 3.57625C7.3749 3.33401 6.89042 3.21289 6.3509 3.21289C5.42599 3.21289 4.67726 3.50468 4.1047 4.08825C3.54315 4.66081 3.26238 5.41504 3.26238 6.35096C3.26238 7.28687 3.54315 8.04661 4.1047 8.63018C4.67726 9.20274 5.42599 9.48902 6.3509 9.48902C6.89042 9.48902 7.3749 9.37341 7.80432 9.14218C8.24475 8.89995 8.57507 8.56963 8.79528 8.15122L11.3553 9.63767C10.8488 10.4855 10.1496 11.1572 9.25774 11.6526C8.37688 12.1371 7.40793 12.3793 6.3509 12.3793Z" fill="url(#paint0_linear_12_819)"/>
<defs>
<linearGradient id="paint0_linear_12_819" x1="2.90316" y1="0.322571" x2="15.2903" y2="13.7419" gradientUnits="userSpaceOnUse">
<stop stop-color="white"/>
<stop offset="1" stop-color="white" stop-opacity="0"/>
</linearGradient>
</defs>
</svg>
