<svg width="17" height="17" viewBox="0 0 17 17" fill="none" xmlns="http://www.w3.org/2000/svg">
<path d="M6.23735 9.37007C7.95976 9.37007 9.35605 7.77487 9.35605 5.80709C9.35605 3.83931 7.95976 2.24411 6.23735 2.24411C4.51494 2.24411 3.11865 3.83931 3.11865 5.80709C3.11865 7.77487 4.51494 9.37007 6.23735 9.37007Z" fill="#874CD1"/>
<path d="M12.4748 14.6396C12.4748 16.8041 9.29947 16.0647 6.2374 16.0647C3.17533 16.0647 0 16.8041 0 14.6396C0 12.475 3.17533 10.7203 6.2374 10.7203C9.29947 10.7203 12.4748 12.475 12.4748 14.6396Z" fill="#874CD1"/>
<path d="M12 2.1612C12 3.12776 12.5258 3.90884 13.3886 4.2444L13.3886 7.8563C12.7674 8.20471 12.1915 8.91385 12.1915 9.81738C12.1915 9.82449 12.1969 9.83173 12.197 9.83887C12.197 10.9236 12.8352 11.7255 13.8997 11.984C14.0481 12.0203 14.1988 11.9328 14.2362 11.7886C14.2435 11.7607 14.2461 11.7317 14.2439 11.703L14.1473 10.4931C14.3995 10.3608 14.7034 10.3607 14.9558 10.4927L14.8517 11.7096C14.839 11.8572 14.952 11.9868 15.1039 11.9991C15.1375 12.0018 15.1713 11.9985 15.2037 11.9894C16.185 11.7133 16.7902 10.8932 16.8 9.84692C16.8003 8.88049 16.2878 8.09941 15.3905 7.76385L15.3905 4.13548C16.1498 3.72754 16.617 2.94821 16.617 2.14497C16.617 1.05149 15.9785 0.255193 14.9004 0.0148354C14.8156 -0.00423906 14.7265 0.0174501 14.661 0.0730978C14.5947 0.12888 14.5598 0.212117 14.5673 0.29703L14.6648 1.50697C14.4127 1.63921 14.109 1.63931 13.8568 1.5073L13.9613 0.290426C13.974 0.142825 13.861 0.0132262 13.7091 0.000923356C13.6755 -0.00179199 13.6417 0.00149329 13.6093 0.0106115C12.6233 0.288046 12 1.1121 12 2.1612Z" fill="#874CD1"/>
</svg>
