<svg width="15" height="15" viewBox="0 0 15 15" fill="none" xmlns="http://www.w3.org/2000/svg">
<g clip-path="url(#clip0_109_206)">
<path d="M13.9498 2.24985H3.60011V0.899892C3.60011 0.718098 3.49032 0.553403 3.32202 0.484105C3.15373 0.414808 2.96113 0.453506 2.83154 0.581302L0.131621 3.28122C-0.0438736 3.45671 -0.0438736 3.742 0.131621 3.9175L2.83154 6.61741C2.96113 6.74611 3.15373 6.78481 3.32202 6.71551C3.49032 6.64621 3.60011 6.48152 3.60011 6.29972V4.94977H13.9498C14.1982 4.94977 14.3998 4.74817 14.3998 4.49978V2.69984C14.3998 2.45054 14.1982 2.24985 13.9498 2.24985Z" fill="#4779CC"/>
<path d="M14.2684 10.4819L11.5685 7.78106C11.4398 7.65236 11.2463 7.61366 11.078 7.68386C10.9097 7.75406 10.7999 7.91785 10.7999 8.09965V9.4496H0.45023C0.201838 9.4496 0.000244141 9.6512 0.000244141 9.89959V11.6995C0.000244141 11.9479 0.201838 12.1495 0.45023 12.1495H10.7999V13.4995C10.7999 13.6813 10.9097 13.846 11.078 13.9153C11.2463 13.9855 11.4398 13.9468 11.5685 13.8181L14.2684 11.1181C14.4439 10.9427 14.4439 10.6574 14.2684 10.4819Z" fill="#4779CC"/>
</g>
<defs>
<clipPath id="clip0_109_206">
<rect width="14.4" height="14.4" fill="white"/>
</clipPath>
</defs>
</svg>
