<svg width="23" height="16" viewBox="0 0 23 16" fill="none" xmlns="http://www.w3.org/2000/svg">
<path d="M17.2243 4.83566C17.0582 4.83566 16.9233 4.97055 16.9233 5.13664C16.9233 5.30273 17.0582 5.43762 17.2243 5.43762C17.3904 5.43762 17.5253 5.30273 17.5253 5.13664C17.5253 4.97055 17.3904 4.83566 17.2243 4.83566Z" fill="#0DA06A"/>
<path d="M17.2248 0C14.4035 0 12.0881 2.31533 12.0881 5.13668C12.0881 7.95803 14.4035 10.2734 17.2248 10.2734C20.0462 10.2734 22.3615 7.95803 22.3615 5.13668C22.3615 2.31533 20.0462 0 17.2248 0ZM17.2248 8.44743C15.3993 8.44743 13.9141 6.96222 13.9141 5.13668C13.9141 3.31114 15.3993 1.82593 17.2248 1.82593C19.0504 1.82593 20.5356 3.31114 20.5356 5.13668C20.5356 6.96222 19.0504 8.44743 17.2248 8.44743Z" fill="#0DA06A"/>
<path d="M18.639 3.97496L19.1386 3.22251C18.8075 2.89136 18.3922 2.64462 17.9287 2.52423L17.5254 3.33083H16.9234L16.5202 2.52423C16.0566 2.64462 15.6413 2.89136 15.3102 3.22251L15.8099 3.97496L15.5089 4.49258L14.606 4.43842C14.5457 4.66117 14.5156 4.89592 14.5156 5.1367C14.5156 5.37748 14.5457 5.61223 14.6059 5.83498L15.5089 5.78082L15.8098 6.29844L15.3102 7.05088C15.6413 7.38196 16.0566 7.62878 16.5201 7.74917L16.9234 6.94256H17.5254L17.9287 7.74917C18.3922 7.62878 18.8075 7.38196 19.1386 7.05088L18.6389 6.29844L18.9399 5.78082L19.8428 5.83498C19.9031 5.61223 19.9332 5.37748 19.9332 5.1367C19.9332 4.89592 19.9031 4.66117 19.8429 4.43842L18.94 4.49258L18.639 3.97496ZM17.2244 6.03963C16.7266 6.03963 16.3215 5.63457 16.3215 5.1367C16.3215 4.63883 16.7266 4.23377 17.2244 4.23377C17.7223 4.23377 18.1274 4.63883 18.1274 5.1367C18.1274 5.63457 17.7223 6.03963 17.2244 6.03963Z" fill="#0DA06A"/>
<path d="M6.23735 8.57008C7.95976 8.57008 9.35605 6.97488 9.35605 5.0071C9.35605 3.03932 7.95976 1.44412 6.23735 1.44412C4.51494 1.44412 3.11865 3.03932 3.11865 5.0071C3.11865 6.97488 4.51494 8.57008 6.23735 8.57008Z" fill="#0DA06A"/>
<path d="M12.4748 13.8396C12.4748 16.0041 9.29947 15.2648 6.2374 15.2648C3.17533 15.2648 0 16.0041 0 13.8396C0 11.675 3.17533 9.92029 6.2374 9.92029C9.29947 9.92029 12.4748 11.675 12.4748 13.8396Z" fill="#0DA06A"/>
</svg>
